<?xml version="1.0" encoding="utf-8"?>
<!-- Generator: Adobe Illustrator 12.0.0, SVG Export Plug-In . SVG Version: 6.00 Build 51448)  -->
<!DOCTYPE svg PUBLIC "-//W3C//DTD SVG 1.1//EN" "http://www.w3.org/Graphics/SVG/1.1/DTD/svg11.dtd" [
	<!ENTITY ns_svg "http://www.w3.org/2000/svg">
	<!ENTITY ns_xlink "http://www.w3.org/1999/xlink">
]>
<svg  version="1.1" id="レイヤー_1" xmlns="&ns_svg;" xmlns:xlink="&ns_xlink;" width="84.73" height="155.952"
	 viewBox="0 0 84.73 155.952" overflow="visible" enable-background="new 0 0 84.73 155.952" xml:space="preserve">
<path d="M75.247,9.524c-0.192,0.021-0.362,0.021-0.512,0.021c-0.425,0-1.02,0.022-1.765,0.042c-1.084,0.043-2.7,0.128-4.869,0.235
	c-0.488,0.063-1.297,0.17-2.402,0.297c-0.105-0.19-0.277-0.489-0.532-0.914c0.149,0.022,0.574,0.022,1.233,0
	c0.489-0.021,1.915-0.063,4.274-0.17c0.255-0.489,0.574-1.191,0.935-2.084c0.064-0.255,0.192-0.702,0.384-1.319
	c1.169,0.702,1.743,1.149,1.723,1.341c-0.021,0.149-0.129,0.234-0.361,0.297c-0.34,0.107-0.512,0.149-0.512,0.149
	c-0.255,0.298-0.659,0.829-1.233,1.574l1.575-0.085l0.786-1.042c0.233,0.17,0.617,0.445,1.127,0.829
	c0.34,0.276,0.489,0.467,0.467,0.595C75.522,9.439,75.417,9.502,75.247,9.524 M74.119,12.501c-0.425,0.022-0.872,0.022-1.339,0.042
	c-0.532,0.022-1.084,0.065-1.638,0.107c0,1.297,0,2.233,0.021,2.807c0.021,0.787,0.021,1.551,0,2.317
	c0,0.32-0.191,0.617-0.574,0.894c-0.298,0.212-0.511,0.318-0.616,0.318c-0.064,0-0.107-0.021-0.128-0.043
	c-0.085-0.063-0.106-0.255-0.085-0.552c0.021-0.212,0.043-0.425,0.063-0.639c0.021-0.445,0.064-1.254,0.106-2.423
	c0.021-1.043,0.043-1.914,0.021-2.594c-0.446,0.021-1.105,0.085-1.955,0.17c-0.234,0.063-0.639,0.128-1.191,0.213
	c-0.064-0.065-0.212-0.362-0.446-0.872c0.361,0,0.935,0,1.68-0.022c0.447-0.021,1.084-0.042,1.913-0.105v-0.852
	c-0.021-0.276-0.021-0.701-0.042-1.296c0.319,0.085,0.659,0.17,0.979,0.255c0.382,0.127,0.595,0.234,0.616,0.297
	c0.021,0.065,0,0.15-0.086,0.235c-0.105,0.085-0.19,0.17-0.275,0.233v1.043l1.19-0.107c0.17-0.235,0.447-0.553,0.809-0.979
	c0.532,0.362,0.914,0.617,1.189,0.809c0.342,0.212,0.489,0.425,0.427,0.616C74.735,12.458,74.523,12.501,74.119,12.501
	 M74.588,5.547c-0.362,0-0.489,0-0.384-0.02c-0.468,0.042-1.276,0.063-2.402,0.085c-0.063,0-1.212,0.064-3.467,0.192
	c-0.233,0.02-0.616,0.085-1.19,0.212c-0.17-0.277-0.319-0.574-0.467-0.894c0.319,0,0.744,0,1.254,0.022
	c0.446,0.021,1.105,0,2.02-0.064c0.022-0.149,0-0.787-0.021-1.871c0-0.404-0.021-0.808-0.042-1.17
	c0.382,0.127,0.765,0.256,1.148,0.362c0.445,0.149,0.659,0.277,0.68,0.382c0,0.128-0.063,0.234-0.17,0.341
	c-0.107,0.106-0.234,0.233-0.362,0.34c-0.021,0.192-0.021,0.702-0.042,1.573l1.36-0.064c0.192-0.275,0.447-0.615,0.744-1.02
	c0.277,0.191,0.682,0.468,1.233,0.872c0.319,0.277,0.468,0.489,0.425,0.595C74.885,5.505,74.778,5.547,74.588,5.547 M68.357,16.668
	c-0.191,0.405-0.426,0.617-0.744,0.597c-0.234,0-0.404-0.15-0.531-0.469c-0.17-0.425-0.17-0.787,0.021-1.084
	c0.17-0.15,0.404-0.447,0.724-0.851c0.19-0.362,0.34-0.659,0.425-0.85c0.106-0.319,0.212-0.447,0.361-0.426
	c0.085,0.022,0.128,0.234,0.148,0.659C68.803,15.201,68.676,16.009,68.357,16.668 M69.145,8.823
	c-0.192,0.02-0.362-0.022-0.469-0.128c-0.128-0.107-0.19-0.255-0.19-0.489c0.021-0.212,0.063-0.532,0.085-0.957
	c0-0.276-0.022-0.511-0.043-0.701c-0.042-0.277-0.021-0.427,0.043-0.447c0.147-0.065,0.34,0.042,0.552,0.297
	c0.128,0.15,0.297,0.383,0.489,0.681c0.213,0.34,0.277,0.66,0.213,0.957C69.719,8.525,69.505,8.78,69.145,8.823 M73.375,15.989
	c-0.19,0.148-0.36,0.148-0.532,0c-0.042-0.022-0.232-0.342-0.552-0.937c-0.213-0.383-0.404-0.682-0.595-0.914
	c-0.192-0.235-0.278-0.384-0.257-0.469c0.043-0.085,0.214-0.085,0.512,0.022c0.19,0.063,0.489,0.17,0.85,0.362
	c0.489,0.36,0.766,0.679,0.829,0.956C73.716,15.457,73.63,15.797,73.375,15.989 M82.73,8.099c-0.531,0.022-1.19,0.042-1.978,0.064
	l-0.255,0.021c0.022,1.595,0.043,3.508,0.064,5.742c0,0.382,0.021,0.892,0.063,1.509c0.064,0.702,0.084,1.191,0.084,1.488
	c0.022,0.809,0.022,1.298,0,1.468c-0.063,0.552-0.232,0.999-0.531,1.339c-0.404,0.489-0.744,0.702-0.977,0.639
	c-0.107-0.022-0.172-0.192-0.149-0.469l0.021-0.914c0.021-0.49,0.064-1.234,0.106-2.19c0.022-0.872,0.043-1.893,0.064-3.062
	c0.021-1.276,0-3.104-0.042-5.486c-0.659,0.043-1.341,0.085-2.042,0.15c-0.021,0.148-0.021,0.34-0.021,0.573
	c-0.022,1.318-0.149,2.488-0.384,3.53c-0.213,0.978-0.595,1.892-1.127,2.722c-0.701,1.084-1.638,1.998-2.786,2.721
	c-0.317,0.192-0.53,0.298-0.68,0.298c-0.127,0-0.191-0.063-0.191-0.17c0-0.106,0.191-0.32,0.554-0.638
	c0.999-0.871,1.785-1.85,2.338-2.913c0.319-0.659,0.596-1.446,0.786-2.36c0.234-1.213,0.362-2.701,0.342-4.444
	c0-0.766-0.022-1.935-0.085-3.488c0.105,0.042,0.402,0.149,0.892,0.341l0.085,0.021c0.574-0.383,1.063-0.744,1.468-1.064
	c0.383-0.318,0.787-0.701,1.191-1.147c0.255-0.277,0.51-0.616,0.786-1.063c0.362,0.319,0.829,0.679,1.361,1.106
	c0.276,0.19,0.404,0.36,0.404,0.488c0,0.043-0.022,0.086-0.043,0.128c-0.064,0.085-0.212,0.128-0.469,0.148
	c-0.34,0.022-0.531,0.043-0.595,0.065c-0.382,0.19-0.979,0.489-1.808,0.871c-0.382,0.17-0.956,0.405-1.743,0.723
	c0.189,0.107,0.275,0.213,0.298,0.319c0.021,0.127-0.043,0.234-0.15,0.34c-0.127,0.107-0.254,0.234-0.382,0.341
	c0,0.297,0,0.914-0.021,1.871c1.063-0.065,2.36-0.128,3.911-0.235l0.958-1.211c0.275,0.192,0.68,0.489,1.169,0.893
	c0.383,0.318,0.553,0.553,0.489,0.702C83.645,7.994,83.327,8.078,82.73,8.099"/>
<path d="M79.946,29.359c-0.809,0.042-1.383,0.064-1.745,0.064c-0.807,0.02-1.85,0.063-3.124,0.127
	c-0.022,2.34-0.043,3.764-0.043,4.253l1.977-0.085c0.171-0.192,0.446-0.51,0.851-0.914c0.447,0.34,0.809,0.617,1.084,0.849
	c0.257,0.235,0.384,0.427,0.362,0.597c0,0.127-0.19,0.297-0.595,0.531l-0.192,3.466c0.425,0.404,0.617,0.637,0.574,0.744
	c-0.042,0.106-0.297,0.17-0.766,0.17c-1.531,0.022-2.807,0.085-3.806,0.15c-0.021,0-1.021,0.042-2.956,0.105
	c0,0.192-0.063,0.469-0.213,0.829c-0.17,0.469-0.359,0.681-0.574,0.639c-0.17-0.022-0.255-0.192-0.275-0.489
	c-0.021-0.255-0.042-0.639-0.064-1.127c-0.021-1.233-0.085-2.574-0.212-4.019c-0.022-0.575-0.085-1.319-0.17-2.233
	c0.34,0.192,0.871,0.51,1.615,0.936c0.447-0.022,1.106-0.042,1.978-0.085v-2.105c0.022-0.936,0.022-1.637,0.022-2.127
	c-0.916,0.065-2.489,0.15-4.699,0.277c-0.767,0.063-1.49,0.128-2.17,0.233c-0.106-0.19-0.255-0.532-0.446-0.977
	c0.956,0.043,1.743,0.043,2.339,0.021l4.977-0.255c0-0.872,0-2-0.022-3.359c-0.042-0.681-0.106-1.702-0.17-3.041
	c0.425,0.105,0.957,0.255,1.573,0.467c0.468,0.15,0.702,0.34,0.702,0.532c0.021,0.127-0.064,0.297-0.213,0.489
	c-0.234,0.319-0.361,0.467-0.361,0.489c-0.021,0.021-0.043,0.787-0.063,2.296c-0.022,0.638-0.022,1.318-0.043,2.062l3.976-0.148
	l1.148-1.51c0.701,0.489,1.275,0.914,1.723,1.276c0.275,0.234,0.425,0.404,0.425,0.511c0,0.255-0.298,0.361-0.894,0.34
	C80.966,29.316,80.478,29.338,79.946,29.359 M74.099,34.484l-2.659,0.127l0.085,2.296c0.022,0.744,0.043,1.383,0.064,1.872
	c0.872,0,1.681-0.022,2.425-0.065c0.744-0.02,1.7-0.063,2.869-0.105l0.149-4.254C76.82,34.354,75.842,34.398,74.099,34.484"/>
<path d="M83.752,54.851c-0.404,0.105-0.809,0.234-1.212,0.425c-0.064,0.021-0.214,0.149-0.446,0.361
	c-0.192,0.15-0.362,0.235-0.489,0.235c-0.469,0-1.553-0.532-3.254-1.595c-0.936-0.575-1.893-1.319-2.892-2.212
	c-0.489-0.425-0.851-0.765-1.128-1.042c-0.999,1.084-1.998,1.978-2.977,2.679c-0.829,0.575-1.615,1.064-2.38,1.468
	c-0.916,0.467-1.851,0.892-2.829,1.276c-0.574,0.212-0.999,0.318-1.275,0.318c-0.107,0-0.149-0.021-0.17-0.043
	c-0.085-0.105,0.255-0.34,0.999-0.701c0.106-0.043,0.724-0.383,1.872-0.999c0.807-0.447,1.488-0.872,2.02-1.276
	c0.787-0.574,1.616-1.339,2.53-2.275c0.488-0.489,1.041-1.276,1.68-2.318c0.255,0.128,0.553,0.276,0.893,0.468
	c0.554,0.297,0.809,0.51,0.786,0.659c-0.042,0.192-0.275,0.319-0.701,0.425c0.744,0.574,1.36,1.021,1.85,1.298
	c1.084,0.637,2.147,1.106,3.19,1.403c0.829,0.233,2.021,0.467,3.594,0.702c0.317,0.02,0.616,0.063,0.935,0.104
	c0.256,0.043,0.384,0.107,0.384,0.192C84.73,54.553,84.411,54.701,83.752,54.851 M80.668,47.727h-0.979
	c-0.786,0-1.7,0.022-2.742,0.065c-0.106,0.233-0.276,0.637-0.552,1.191c-0.234,0.487-0.469,0.701-0.66,0.679
	c-0.148-0.02-0.191-0.297-0.128-0.786c0.021-0.17,0.064-0.51,0.149-1.021l-1.318,0.085c-0.66,0.042-1.254,0.085-1.787,0.107
	c0.021,0.339,0.021,0.616,0.021,0.829c0.021,0.659-0.085,0.999-0.317,1.021c-0.234,0.02-0.427-0.298-0.574-0.979
	c-0.064-0.212-0.107-0.467-0.172-0.787c-0.68,0.063-1.381,0.107-2.104,0.17c-0.34,0.065-0.85,0.128-1.531,0.213L67.507,47.6
	c1.105,0,1.85,0,2.232-0.021l1.743-0.107c-0.213-1.126-0.403-1.999-0.595-2.614c0.234,0.02,0.637,0.085,1.169,0.169
	c0.212,0.021,0.426,0.063,0.659,0.106c0.234,0.064,0.361,0.149,0.384,0.255c0.021,0.107-0.149,0.404-0.512,0.851
	c0,0.319,0,0.724,0.021,1.191l3.254-0.17c0.021-0.255,0.085-0.659,0.17-1.191c0.105-0.702,0.17-1.298,0.213-1.828
	c0.276,0.105,0.701,0.275,1.318,0.51c0.574,0.276,0.871,0.509,0.894,0.659c0.021,0.192-0.257,0.404-0.788,0.637
	c-0.128,0.362-0.275,0.724-0.445,1.128c0.445-0.022,0.914-0.043,1.381-0.065c0.234-0.275,0.597-0.701,1.084-1.233
	c0.427,0.277,0.852,0.596,1.255,0.914c0.362,0.299,0.532,0.511,0.511,0.639C81.435,47.622,81.18,47.727,80.668,47.727
	 M70.694,59.869c-0.53,0.829-1.126,1.232-1.742,1.212c-0.468-0.022-0.701-0.298-0.701-0.809c-0.021-0.255,0.212-0.532,0.701-0.85
	c0.362-0.191,0.701-0.404,1.063-0.596c0.298-0.212,0.594-0.467,0.893-0.786c0.276-0.318,0.446-0.447,0.511-0.425
	c0.148,0.063,0.17,0.255,0.063,0.617C71.354,58.721,71.1,59.253,70.694,59.869 M78.968,56.212h-0.829
	C77.776,56.19,77.5,56.19,77.31,56.19c-0.49,0-1.318,0.021-2.467,0.085c0,0.361,0,1.106,0.021,2.211
	c0.021,1.596,0.042,2.403,0.042,2.445c0,0.596-0.255,1.021-0.786,1.276c-0.298,0.15-0.51,0.213-0.638,0.192
	c-0.127-0.022-0.191-0.192-0.17-0.51c0.021-0.362,0.063-0.788,0.105-1.318c0.022-0.617,0.064-1.617,0.107-3.021v-1.233
	c-0.574,0.022-1.511,0.064-2.765,0.129c-0.639,0.063-1.298,0.127-1.978,0.233c-0.085-0.148-0.213-0.425-0.404-0.829
	c0.852,0.022,1.573,0,2.17-0.021c1.275-0.064,2.274-0.085,2.977-0.085v-1.148c0.021-0.235,0-0.659-0.043-1.319
	c0.212,0.063,0.595,0.17,1.148,0.361c0.233,0.086,0.36,0.129,0.383,0.149c0.17,0.065,0.255,0.15,0.276,0.255
	c0,0.128-0.042,0.235-0.149,0.299c-0.105,0.085-0.191,0.148-0.297,0.212v1.127c0.446-0.022,1.148-0.043,2.063-0.085
	c0.17-0.213,0.467-0.532,0.913-0.979c0.32,0.213,0.617,0.427,0.937,0.617c0.489,0.34,0.723,0.574,0.723,0.702
	C79.478,56.127,79.308,56.232,78.968,56.212 M80.923,60.464c-0.147,0.234-0.382,0.34-0.68,0.362c-0.276,0-0.554-0.192-0.829-0.554
	c-0.234-0.318-0.47-0.637-0.701-0.956c-0.447-0.468-0.957-0.85-1.553-1.127c-0.404-0.192-0.617-0.319-0.595-0.425
	c0.021-0.149,0.317-0.171,0.871-0.064c0.617,0.107,1.191,0.277,1.743,0.467c1.298,0.469,1.936,1.021,1.956,1.638
	C81.136,60.06,81.072,60.272,80.923,60.464"/>
<path d="M84.411,81.595c-0.149,0.063-0.298,0.149-0.447,0.234c-0.042,0.02-0.361,0.148-0.936,0.403
	c-0.34,0.149-0.638,0.341-0.893,0.574c-0.127,0.192-0.361,0.404-0.681,0.639c-0.275,0.063-0.744,0.02-1.403-0.128
	c-1.063-0.234-2.487-0.617-4.273-1.148c-1.19-0.362-2.424-0.936-3.68-1.723c-0.701-0.425-1.275-0.829-1.721-1.211
	c-0.172-0.213-0.469-0.49-0.916-0.809c-0.232,0.192-0.637,0.467-1.254,0.829c-0.616,0.362-1.041,0.617-1.253,0.787
	c-0.065,0.042-0.15,0.192-0.3,0.447c-0.127,0.191-0.232,0.297-0.34,0.319c-0.17,0-0.404-0.213-0.701-0.639
	c-0.105-0.148-0.277-0.382-0.51-0.722c0.36-0.107,0.871-0.255,1.551-0.489c0.659-0.235,1.403-0.532,2.232-0.936
	c0-2.19,0-3.359,0.022-3.466c-0.383,0.064-0.894,0.149-1.511,0.277c-0.232,0.063-0.595,0.17-1.084,0.297
	c-0.021-0.02-0.234-0.319-0.637-0.892c0.914-0.022,1.935-0.129,3.039-0.319c0.085-0.128,0.342-0.447,0.787-0.936
	c0.191,0.149,0.511,0.404,0.936,0.723c0.255,0.191,0.383,0.361,0.383,0.532c0,0.106-0.043,0.212-0.148,0.275
	c-0.106,0.085-0.276,0.213-0.469,0.383v3.211c0.659,0.574,1.318,1.021,1.978,1.383c0.214-1.169,0.319-2.34,0.342-3.466
	c0.021-1.553,0.042-2.744,0.021-3.573c0-0.19-0.043-0.892-0.105-2.147c0.063,0.021,0.467,0.276,1.233,0.723
	c0.063,0.043,0.17,0.105,0.275,0.17l0.894-0.064c0.234-0.575,0.467-1.254,0.701-2.02c-1.573,0.085-3.019,0.212-4.359,0.383
	c-0.104-0.192-0.232-0.446-0.404-0.808c0.277,0,0.767-0.022,1.426-0.043c0.319-0.022,1.785-0.107,4.359-0.255
	c0.232-0.511,0.467-1.17,0.723-1.957c0.084-0.36,0.233-0.934,0.424-1.7c0.404,0.234,0.937,0.594,1.576,1.084
	c0.254,0.192,0.381,0.362,0.381,0.511c0,0.19-0.339,0.36-0.999,0.467c-0.34,0.34-0.851,0.851-1.51,1.531l2.297-0.127
	c0.19-0.235,0.467-0.595,0.85-1.064c0.299,0.234,0.701,0.554,1.19,1.001c0.298,0.275,0.427,0.487,0.362,0.594
	s-0.298,0.17-0.724,0.17c-0.53,0-1.361,0.022-2.53,0.065c-0.531,0.021-1.339,0.042-2.424,0.105c0.127,0.107,0.299,0.234,0.531,0.382
	c0.34,0.257,0.512,0.427,0.489,0.512c0,0.105-0.085,0.192-0.276,0.212c-0.19,0.043-0.383,0.085-0.574,0.107
	c-0.128,0.148-0.36,0.425-0.702,0.787c0.555-0.043,1.403-0.107,2.574-0.213c0.021,0,0.234-0.277,0.659-0.808
	c0.276,0.192,0.574,0.424,0.892,0.679c0.404,0.362,0.617,0.617,0.598,0.766c0,0.15-0.256,0.425-0.745,0.809
	c0,1.169,0.021,2.423,0.085,3.721c0.063,1.743,0.085,2.806,0.042,3.211c-0.021,0.275-0.17,0.552-0.404,0.807
	c-0.382,0.426-0.68,0.616-0.871,0.553c-0.128-0.064-0.192-0.319-0.17-0.808v-1.553c-0.787,0.022-1.553,0.065-2.255,0.107
	c-0.063,0-0.891,0.065-2.487,0.17c-0.085,0.319-0.234,0.639-0.467,0.936c-0.064,0.085-0.149,0.19-0.257,0.34
	c0.873,0.404,2,0.787,3.339,1.106c0.936,0.212,2.446,0.34,4.551,0.404c0.318,0.021,1.254-0.022,2.785-0.127
	c0.659-0.043,0.999,0,1.063,0.148C84.603,81.425,84.561,81.53,84.411,81.595 M69.634,70.112c-0.172,0.213-0.384,0.319-0.638,0.319
	c-0.129,0-0.235-0.021-0.32-0.085c-0.17-0.127-0.275-0.319-0.318-0.574c-0.042-0.255-0.085-0.51-0.106-0.744
	c-0.064-0.468-0.192-0.807-0.383-1.021c-0.106-0.106-0.234-0.213-0.384-0.34c-0.147-0.128-0.212-0.233-0.212-0.34
	c0-0.17,0.106-0.255,0.319-0.255c0.106,0,0.297,0.043,0.574,0.128c0.956,0.319,1.53,0.807,1.7,1.488
	C70.016,69.262,69.951,69.751,69.634,70.112 M74.99,67.262c0,0.362-0.127,0.617-0.402,0.787c-0.319,0.192-0.574,0.234-0.767,0.107
	c-0.276-0.149-0.404-0.489-0.425-0.999c-0.021-0.469-0.085-0.872-0.212-1.233c-0.021-0.085-0.085-0.192-0.149-0.298
	c-0.064-0.107-0.107-0.192-0.107-0.212c0-0.087,0.064-0.129,0.172-0.129c0.19,0,0.425,0.086,0.659,0.277
	c0.595,0.404,0.977,0.829,1.146,1.255C74.97,66.965,74.99,67.115,74.99,67.262 M78.309,74.408c-0.022-0.596-0.022-1.553-0.022-2.849
	c-1.04,0.063-2.614,0.19-4.741,0.36c0,0.405,0,0.851,0.021,1.383c0.872-0.064,1.424-0.127,1.616-0.149
	c0.701-0.085,1.213-0.213,1.53-0.383c0.149,0.15,0.34,0.362,0.575,0.68c0.106,0.192,0.063,0.277-0.171,0.299l-1.658,0.127
	c-0.446,0.021-1.063,0.085-1.872,0.148c0,0.32,0,0.787,0.022,1.404c0.425-0.043,1.041-0.106,1.828-0.191
	c0.531-0.085,1-0.192,1.403-0.341c0.021,0.022,0.127,0.214,0.341,0.574c0.17,0.277,0.17,0.404,0,0.404
	c-0.574,0.022-1.765,0.107-3.572,0.277c0.021,0.851,0.042,1.403,0.042,1.658c0.532-0.042,1.318-0.105,2.36-0.17l2.297-0.106V74.408z
	"/>
<path d="M72.077,102.388c-0.424,0.233-1.169,0.595-2.253,1.084c-0.787,0.34-1.594,0.638-2.425,0.914
	c-0.487,0.17-0.871,0.255-1.104,0.255c-0.191,0-0.319-0.063-0.341-0.17c-0.021-0.063,0.276-0.255,0.871-0.531
	c0.809-0.362,1.596-0.765,2.361-1.212c0.447-0.255,1.063-0.681,1.851-1.255c0.34-0.255,0.68-0.574,1.04-0.957
	c0.235,0.235,0.469,0.49,0.703,0.724c0.361,0.404,0.531,0.659,0.467,0.787C73.185,102.196,72.78,102.324,72.077,102.388
	 M81.944,99.771c-1.318,0-3.955,0.065-7.889,0.17c-1.743,0.043-3.445,0.149-5.124,0.319c-0.489,0.065-1.19,0.128-2.148,0.235
	c-0.213-0.32-0.36-0.617-0.468-0.894c1.042,0,2.425-0.042,4.104-0.107c2.381-0.105,3.741-0.148,4.083-0.17
	c1.104-0.02,2.869-0.063,5.294-0.148c0.234-0.319,0.595-0.766,1.063-1.382c0.361,0.276,0.807,0.638,1.318,1.063
	c0.34,0.277,0.51,0.467,0.489,0.595C82.646,99.667,82.391,99.771,81.944,99.771 M78.116,89.587c-0.021,0.574,0,1.403,0.043,2.467
	c0.042,1.403,0.064,2.212,0.064,2.402c0.02,0.596,0.063,1.489,0.105,2.679c0.021,0.512-0.021,0.872-0.128,1.064
	c-0.085,0.149-0.255,0.297-0.51,0.467c-0.255,0.192-0.467,0.277-0.616,0.257c-0.192-0.022-0.298-0.214-0.298-0.597
	c0.021-0.234,0.021-0.594,0.043-1.063c-1.936,0.107-3.551,0.234-4.892,0.341c0,0.191,0,0.318-0.021,0.383
	c-0.042,0.234-0.17,0.467-0.384,0.744c-0.255,0.319-0.467,0.467-0.659,0.424c-0.127-0.02-0.19-0.382-0.19-1.063
	c0-0.68,0.021-1.701,0.043-3.062c0.021-1.338,0.042-2.359,0.042-3.041c0-0.829,0-1.488-0.021-1.977
	c-0.021-0.914-0.043-1.658-0.085-2.253c0.17,0.085,0.426,0.233,0.766,0.425c0.17,0.107,0.404,0.255,0.723,0.447
	c1.021-0.065,2.552-0.17,4.571-0.32c0.128-0.127,0.362-0.362,0.724-0.722c0.935,0.787,1.403,1.276,1.382,1.466
	C78.798,89.183,78.563,89.354,78.116,89.587 M76.82,93.265l-0.043-4.337l-4.869,0.34v2.062c0.298-0.02,1.191-0.085,2.657-0.233
	c0.447-0.042,0.872-0.149,1.276-0.297c0.36,0.403,0.531,0.659,0.489,0.744c-0.022,0.043-0.192,0.085-0.51,0.106
	c-0.064,0-0.639,0.042-1.681,0.107c-0.404,0.042-1.148,0.105-2.212,0.19v2.02c0.574-0.021,1.128-0.063,1.658-0.127
	c0.639-0.063,1.063-0.128,1.256-0.148c0.382-0.065,0.722-0.128,1.041-0.235c0.383,0.383,0.532,0.637,0.468,0.744
	c-0.021,0.043-0.19,0.085-0.488,0.107c-0.319,0.021-0.786,0.063-1.403,0.106c-0.469,0.042-1.318,0.107-2.531,0.192v2.36l4.912-0.298
	C76.862,95.797,76.841,94.669,76.82,93.265 M80.307,104.174c-0.085,0.042-0.17,0.063-0.255,0.063c-0.148,0-0.362-0.085-0.595-0.255
	c-0.149-0.104-0.34-0.297-0.574-0.595c-0.277-0.361-0.469-0.574-0.574-0.681c-0.489-0.447-1.106-0.871-1.828-1.233
	c-0.554-0.276-0.831-0.445-0.831-0.51c0-0.085,0.107-0.127,0.319-0.127c0.192,0,0.469,0.042,0.872,0.107
	c1.043,0.19,1.872,0.424,2.446,0.679c1.126,0.489,1.679,1.021,1.679,1.573C80.966,103.685,80.753,104.004,80.307,104.174"/>
<path d="M35.239,77.075c-0.511-0.127-0.851-0.17-1.021-0.17c-0.936-0.042-2.211,0.298-3.827,0.979
	c-0.894,0.34-1.403,0.509-1.488,0.509c-0.127,0-0.169,0-0.213-0.042c-0.127-0.17,0.086-0.51,0.553-1.021
	c0.469-0.467,1.191-1.232,2.084-2.253c-0.893,0.043-4.295,0.212-10.248,0.51c-2.169,0.127-5.571,0.297-10.122,0.596
	c-0.085,0.51-0.212,1.233-0.425,2.125c-0.213,1.021-0.552,1.915-1.021,2.722c-0.552,0.979-1.148,1.488-1.871,1.488
	c-0.382,0-0.765-0.254-1.063-0.722c-0.213-0.384-0.34-0.808-0.34-1.233c0-0.554,0.255-1.234,0.765-1.957
	c0.426-0.595,0.851-1.19,1.276-1.828c0.596-1.064,1.063-2.34,1.361-3.743l0.127-1.019c0.129-0.512,0.256-0.767,0.426-0.767
	c0.595,0.043,0.893,1.191,0.893,3.446l8.548-0.384c0-0.765,0-1.616-0.043-2.594c-0.042-0.722-0.127-1.828-0.169-3.317
	c1.062,0.298,1.955,0.553,2.678,0.807c1.021,0.384,1.531,0.724,1.531,1.064c0.043,0.212-0.298,0.681-1.02,1.361
	c0,0.17-0.043,1.021-0.085,2.551c2.041-0.084,5.103-0.212,9.143-0.424c0.382-0.383,1.021-0.979,1.828-1.743
	c0.638,0.637,1.489,1.615,2.552,2.849c0.681,0.807,1.021,1.445,1.021,1.828c0,0.382-0.255,0.552-0.724,0.552
	C36.132,77.245,35.749,77.203,35.239,77.075 M31.539,100.593c-0.085,0.043-0.425,0.043-1.021,0.043
	c-1.446,0.042-3.828,0.085-7.103,0.127c-2.423,0.085-5.145,0.212-8.165,0.382c-0.042,0.595-0.127,1.021-0.212,1.234
	c-0.213,0.467-0.511,0.892-0.978,1.233c-0.468,0.298-0.851,0.425-1.191,0.383c-0.212-0.043-0.255-0.809-0.17-2.297
	c0.043-0.85,0.043-2.126,0-3.827c-0.042-0.638-0.085-1.787-0.171-3.445c-0.085-1.361-0.17-2.424-0.297-3.231
	c0.383,0.127,1.021,0.425,1.957,0.892c0.297,0.127,0.765,0.341,1.318,0.638c0.765-0.042,1.998-0.084,3.699-0.169
	c0.17-0.597,0.383-1.575,0.638-2.978c0.128-0.808,0.255-1.574,0.341-2.381c-1.489,0.085-2.637,0.17-3.531,0.213
	c-0.042,0.297-0.085,0.552-0.127,0.722c-0.17,0.384-0.467,0.723-0.893,1.021c-0.468,0.297-0.85,0.467-1.233,0.467
	c-0.212,0-0.34-0.17-0.34-0.552c0-0.128,0-0.298,0.043-0.51c0.042-0.212,0.042-0.341,0.042-0.469c0-0.382,0-1.019,0.043-1.828
	c0.042-0.808,0.042-1.403,0.042-1.786c0-0.723-0.042-2.084-0.17-4.04c-0.042-0.553-0.085-1.403-0.213-2.466
	c0.341,0.17,0.978,0.467,1.871,0.936c0.468,0.255,1.021,0.594,1.616,0.977c0.894-0.043,2.17-0.085,3.87-0.213
	c0.979-0.085,2.254-0.17,3.87-0.255c0.255-0.297,0.68-0.851,1.234-1.615c0.34,0.212,0.892,0.594,1.615,1.148
	c0.724,0.552,1.106,0.935,1.106,1.147c-0.043,0.214-0.426,0.681-1.233,1.318c-0.128,1.404-0.256,2.51-0.298,3.318
	c0.894,0.807,1.318,1.404,1.234,1.786c-0.044,0.212-0.341,0.34-0.937,0.382c-0.723,0-1.446,0-2.169,0.043
	c-0.255,0.044-1.871,0.129-4.805,0.256c0.34,0.17,0.935,0.467,1.743,0.85c0.808,0.384,1.191,0.723,1.148,1.021
	c-0.042,0.34-0.595,0.723-1.659,1.148l-1.062,2.297l6.506-0.299l1.403-1.658c1.828,1.318,2.765,2.169,2.765,2.552
	c0.042,0.297-0.426,0.766-1.318,1.403l-0.256,3.7c1.403,0.807,1.999,1.489,1.871,1.956
	C31.879,100.421,31.752,100.548,31.539,100.593 M21.503,93.703c-2.892,0.128-5.061,0.298-6.507,0.426
	c0.043,1.276,0.128,3.146,0.213,5.571l11.95-0.425c0.127-1.276,0.255-3.191,0.382-5.742C26.309,93.575,24.31,93.618,21.503,93.703
	 M16.442,81.37c0.042,0.979,0.127,2.552,0.256,4.721c1.998-0.127,4.677-0.255,8.079-0.425c0.086-0.936,0.171-2.551,0.298-4.848
	C23.076,80.944,20.185,81.114,16.442,81.37"/>
<path d="M34.218,125.25c-3.784,0.085-7.569,0.212-11.311,0.382c-0.383,0.042-3.232,0.17-8.633,0.467
	c0,1.701-0.128,4.594-0.426,8.634c-0.255,3.699-0.807,6.675-1.658,8.93c-0.723,1.872-1.573,3.403-2.552,4.636
	c-0.977,1.232-2.296,2.508-3.997,3.826c-1.19,0.936-2.084,1.403-2.637,1.403c-0.17,0-0.297-0.042-0.34-0.17
	c-0.127-0.212,0.043-0.509,0.511-0.934c0.467-0.384,0.892-0.809,1.361-1.191c2.593-2.679,4.337-5.273,5.187-7.868
	c0.511-1.53,0.936-3.7,1.234-6.464c0.212-1.828,0.383-4.932,0.425-9.314c0,0.043-0.085-1.53-0.213-4.804
	c0.638,0.297,1.574,0.764,2.808,1.403c0.254,0.128,0.637,0.297,1.105,0.552c2.126-0.085,4.763-0.212,7.952-0.382l7.315-0.382
	l1.785-2.382c0.043,0.042,0.979,0.637,2.722,1.87c0.299,0.17,0.554,0.342,0.81,0.512c0.382,0.297,0.552,0.552,0.552,0.764
	C36.259,125.077,35.579,125.25,34.218,125.25 M19.845,144.938c0,0.297-0.128,0.808-0.425,1.488
	c-0.298,0.723-0.681,1.403-1.149,2.084c-1.318,1.828-2.509,2.722-3.572,2.722c-0.213,0-0.425-0.042-0.595-0.127
	c-0.468-0.299-0.596-0.894-0.383-1.703c0.17-0.594,0.468-1.019,0.893-1.233c0.425-0.212,0.851-0.467,1.318-0.68
	c0.723-0.382,1.403-0.851,1.956-1.361c0.299-0.297,0.553-0.638,0.851-0.978c0.468-0.467,0.766-0.637,0.936-0.595
	C19.802,144.598,19.845,144.725,19.845,144.938 M32.688,132.563v4.891c0.042,0.552,0.042,1.403,0.085,2.55
	c-0.043,0.639-0.255,1.191-0.681,1.66c-0.638,0.722-1.233,1.063-1.743,0.934c-0.213-0.042-0.341-0.382-0.298-0.977l0.042-1.148
	c-2.678,0.127-6.251,0.255-10.759,0.467c0,0.382-0.042,0.724-0.17,1.021c-0.127,0.297-0.382,0.595-0.765,0.936
	c-0.426,0.34-0.766,0.467-1.021,0.425c-0.212-0.043-0.34-0.467-0.34-1.276c0.043-0.552,0.043-1.446,0.085-2.594
	c0-0.809,0-1.871-0.042-3.147c-0.043-1.787-0.085-2.891-0.128-3.36c0-0.977-0.085-2.296-0.298-3.955
	c0.893,0.554,1.871,1.191,2.977,1.999c0.808-0.042,1.956-0.085,3.402-0.17c0.085-0.638,0.255-1.573,0.468-2.806
	c0.043-0.427,0.17-1.149,0.34-2.17c1.106,0.468,1.744,0.766,1.956,0.851c1.021,0.468,1.532,0.892,1.574,1.191
	c0.044,0.213-0.127,0.34-0.468,0.425c-0.637,0.128-1.021,0.255-1.148,0.297c-0.383,0.682-0.85,1.404-1.318,2.127
	c3.063-0.127,4.975-0.256,5.74-0.298c0.213-0.34,0.596-0.85,1.106-1.574c0.978,0.639,1.53,1.064,1.7,1.191
	c0.596,0.468,0.894,0.809,0.937,1.021C33.921,131.5,33.495,132.01,32.688,132.563 M24.14,132.053
	c-1.063,0.042-2.765,0.17-5.103,0.297c0.042,0.552,0.085,1.488,0.127,2.764c2.424-0.127,4.295-0.297,5.528-0.424
	c1.404-0.129,2.383-0.342,3.021-0.554c0.596,0.766,0.893,1.276,0.893,1.488c0,0.212-0.255,0.297-0.808,0.34
	c-1.915,0.086-4.763,0.256-8.59,0.469c0.042,1.233,0.085,2.295,0.085,3.189c0.468-0.043,4.082-0.213,10.801-0.51
	c0.085-3.019,0.128-5.486,0.128-7.358C28.732,131.796,26.733,131.925,24.14,132.053 M25.542,143.832v2.764
	c0,1.318,0,2.339,0.043,3.105c0.042,0.637,0.042,1.489,0.042,2.508c0,0.809-0.212,1.617-0.637,2.339
	c-0.553,0.936-1.106,1.404-1.702,1.404c-0.212,0-0.68-0.383-1.403-1.149c-0.808-0.892-1.319-1.403-1.531-1.53
	c-0.808-0.468-1.148-0.85-1.063-1.064c0.084-0.212,0.425-0.255,1.063-0.212l1.446,0.17c0.638,0.042,1.02,0.042,1.191-0.043
	c0.127-0.085,0.212-0.467,0.212-1.191v-6.123v-4.04c2.084,0.724,3.148,1.318,3.148,1.701
	C26.352,142.813,26.096,143.279,25.542,143.832 M34.771,151.232c-0.51,0.17-1.063-0.17-1.7-1.021
	c-0.298-0.467-0.724-1.106-1.361-1.956c-0.724-0.893-1.446-1.617-2.169-2.127c-0.298-0.212-0.638-0.424-0.936-0.638
	c-0.341-0.213-0.468-0.383-0.383-0.552c0.086-0.213,0.766-0.17,2.084,0.042c1.275,0.255,2.382,0.639,3.274,1.191
	c1.488,0.936,2.212,2.04,2.212,3.359C35.792,150.423,35.451,151.021,34.771,151.232"/>
<path d="M42.092,22.186c-0.174,0.404-0.332,0.788-0.511,1.126c-0.205,0.385-0.42,0.742-0.639,1.058
	c-0.241,0.349-0.531,0.649-0.798,0.939c-0.277,0.3-0.545,0.618-0.86,0.882c-0.462,0.386-0.69,0.522-0.896,0.656
	c-0.209,0.136-0.505,0.094-1.07,0.311c-0.2,0.077-0.377,0.236-0.686,0.285c-0.146,0.715,0.006,0.716-0.135,1.432
	c-0.052,0.262-0.013,0.45-0.271,0.514c-0.595,0.146-0.64-0.217-1.252-0.217c-0.551,0-0.551,0.143-1.102,0.143
	s-0.551,0.077-1.101,0.077c-0.612,0-0.61-0.045-1.204-0.192c-0.26-0.064-0.21-0.074-0.262-0.336
	c-0.142-0.716,0.135-0.743-0.012-1.458c-0.309-0.049-0.654-0.202-0.854-0.279c-0.565-0.218-0.896-0.112-1.104-0.247
	c-0.207-0.135-0.3-0.438-0.762-0.825c-0.264-0.221-0.536-0.421-0.772-0.669c-0.229-0.242-0.379-0.548-0.589-0.829
	c-0.196-0.264-0.373-0.542-0.557-0.851c-0.166-0.28-0.476-0.57-0.636-0.896c-0.003,0.507,0.056,1.06,0.012,1.561
	c-0.031,0.364-0.001,0.741-0.062,1.095c-0.064,0.368-0.202,0.719-0.297,1.058c-0.104,0.369-0.212,0.727-0.355,1.037
	c-0.167,0.36-0.499,0.564-0.719,0.805c-0.418,0.457-0.793,0.724-1.289,0.765c-0.295,0.024-0.674,0.244-1.088,0.246
	c-0.368,0.002-0.756-0.083-1.114-0.088c-0.448-0.006-0.848-0.106-1.104-0.106c-0.369,0-0.706-0.043-1.014-0.222
	c-0.306-0.179-0.677-0.332-0.915-0.598c-0.252-0.279-0.469-0.607-0.639-0.882c-0.207-0.335-0.36-0.678-0.467-1
	c-0.11-0.334,0.03-0.723-0.019-1.099c-0.042-0.326-0.302-0.656-0.331-1.053c-0.023-0.321,0.012-0.589-0.016-0.913
	c-0.021-0.25,0.036-0.539,0.048-0.914c0.007-0.257-0.058-0.555-0.022-0.913c-0.012-0.615-0.102-0.696,0.085-1.249
	c0.132-0.39,0.5-0.655,0.98-0.67c0.41-0.014,0.796-0.11,1.17-0.122c0.407-0.012,0.795-0.036,1.171-0.046
	c0.4-0.011,0.789,0.127,1.17,0.12c0.391-0.008,0.775-0.141,1.163-0.144c0.383-0.004,0.77,0.111,1.167,0.111
	c0.377,0,0.833-0.011,1.238-0.006c-0.099-0.342-0.255-0.72-0.248-0.96c0.015-0.566,0.12-0.917,0.264-1.134
	c0.228-0.343,0.602-0.38,1.064-0.331c0.074,0.008,0.469-0.026,1.139-0.001c0.32,0.012,0.702,0.056,1.144,0.069
	c0.348,0.01,0.729,0.107,1.145,0.117c0.358,0.009,0.743-0.103,1.146-0.095c0.364,0.007,0.742,0.218,1.141,0.224
	c0.369,0.005,0.754-0.073,1.151-0.07c0.373,0.005,0.758-0.089,1.153-0.086c0.396-0.003,0.779,0.031,1.151,0.027
	c0.397-0.004,0.78-0.007,1.149-0.012c0.4-0.006,0.782,0.001,1.146-0.006c0.406-0.008,0.789,0.003,1.147-0.006
	c0.418-0.01,0.805-0.009,1.153-0.02c0.441-0.013,0.822-0.074,1.143-0.086c0.664-0.025,1.051-0.089,1.123-0.097
	c0.11-0.011,0.266,0.065,0.364,0.063c-0.071-0.356-0.083-0.739-0.171-1.088c-0.089-0.351-0.33-0.66-0.436-1.004
	c-0.106-0.346-0.158-0.709-0.281-1.047c-0.124-0.34-0.39-0.621-0.529-0.952c-0.142-0.333-0.221-0.689-0.378-1.013
	c-0.157-0.325-0.237-0.691-0.411-1.007s-0.438-0.58-0.628-0.887c-0.19-0.307-0.4-0.598-0.605-0.894
	c-0.205-0.298-0.42-0.584-0.64-0.869c-0.22-0.287-0.354-0.641-0.589-0.915c-0.234-0.275-0.591-0.439-0.838-0.701
	c-0.247-0.262-0.361-0.658-0.621-0.907c-0.261-0.25-0.589-0.43-0.862-0.666c-0.272-0.236-0.566-0.445-0.852-0.667
	c-0.283-0.222-0.581-0.426-0.876-0.633S33.017,3.4,32.711,3.207c-0.305-0.191-0.657-0.312-0.973-0.488
	c-0.313-0.176-0.603-0.412-0.926-0.572c-0.322-0.16-0.701-0.207-1.033-0.35c-0.33-0.143-0.691-0.208-1.03-0.334
	c-0.337-0.126-0.644-0.34-0.988-0.449c-0.343-0.108-0.683-0.242-1.033-0.333c-0.347-0.09-0.705-0.156-1.06-0.23
	c-0.352-0.072-0.738,0.044-1.095-0.011c-0.355-0.054-0.69-0.261-1.051-0.297c-0.357-0.036-0.716-0.123-1.078-0.141
	c-0.359-0.018-0.725,0.097-1.087,0.097c-0.362,0-0.722-0.051-1.079-0.032c-0.36,0.018-0.722,0.032-1.077,0.068
	c-0.359,0.036-0.717,0.084-1.071,0.138c-0.357,0.054-0.683,0.26-1.034,0.332c-0.353,0.072-0.737-0.001-1.084,0.088
	c-0.349,0.09-0.645,0.356-0.987,0.463c-0.344,0.108-0.75,0.025-1.086,0.15c-0.338,0.125-0.618,0.393-0.948,0.535
	c-0.331,0.142-0.7,0.199-1.022,0.357c-0.322,0.159-0.663,0.291-0.976,0.465c-0.315,0.175-0.595,0.413-0.899,0.603
	c-0.305,0.19-0.596,0.404-0.89,0.609C8.909,4.081,8.673,4.362,8.389,4.582c-0.284,0.22-0.672,0.313-0.945,0.547
	C7.172,5.363,7.022,5.733,6.761,5.981c-0.26,0.247-0.515,0.494-0.763,0.754c-0.247,0.261-0.571,0.45-0.806,0.723
	C4.958,7.73,4.79,8.056,4.57,8.34C4.35,8.624,4.157,8.925,3.952,9.219C3.747,9.514,3.54,9.804,3.35,10.109
	c-0.19,0.304-0.468,0.558-0.643,0.872c-0.174,0.313-0.267,0.671-0.426,0.994c-0.158,0.321-0.242,0.675-0.384,1.006
	c-0.141,0.329-0.341,0.633-0.466,0.97c-0.125,0.336-0.34,0.644-0.448,0.987c-0.107,0.342-0.17,0.701-0.26,1.049
	c-0.089,0.347-0.01,0.732-0.082,1.085c-0.071,0.35-0.251,0.681-0.305,1.037c-0.054,0.354-0.048,0.715-0.084,1.074
	c-0.035,0.356-0.136,0.708-0.154,1.069C0.08,20.609,0,20.969,0,21.331c0,0.361,0.089,0.721,0.107,1.078
	c0.018,0.36-0.033,0.727,0.003,1.083c0.036,0.359,0.251,0.694,0.305,1.048c0.054,0.357,0.068,0.716,0.139,1.067
	c0.073,0.353,0.061,0.726,0.15,1.072c0.091,0.349,0.232,0.685,0.339,1.027c0.108,0.343,0.181,0.701,0.306,1.037
	c0.125,0.337,0.373,0.625,0.515,0.955s0.316,0.642,0.475,0.963c0.158,0.324,0.157,0.73,0.332,1.044
	c0.175,0.313,0.526,0.525,0.716,0.829c0.19,0.305,0.386,0.601,0.591,0.896c0.205,0.295,0.326,0.65,0.546,0.933
	c0.22,0.285,0.505,0.515,0.739,0.787s0.524,0.489,0.772,0.749c0.247,0.26,0.367,0.647,0.627,0.895
	c0.26,0.247,0.54,0.477,0.813,0.711c0.272,0.234,0.54,0.479,0.824,0.699c0.284,0.219,0.669,0.301,0.963,0.507
	c0.295,0.205,0.513,0.525,0.818,0.715c0.304,0.19,0.706,0.211,1.02,0.386c0.314,0.174,0.613,0.365,0.935,0.524
	c0.322,0.158,0.583,0.446,0.914,0.588c0.329,0.141,0.659,0.292,0.997,0.417c0.335,0.124,0.683,0.228,1.027,0.335
	c0.341,0.108,0.686,0.22,1.035,0.31c0.346,0.089,0.697,0.184,1.05,0.255c0.35,0.072,0.739-0.063,1.095-0.008
	c0.354,0.053,0.696,0.177,1.055,0.213c0.356,0.036,0.71,0.1,1.071,0.118c0.357,0.018,0.716-0.009,1.078-0.009
	c0.364,0,0.724-0.03,1.085-0.049c0.364-0.018,0.732,0.042,1.09,0.006c0.363-0.037,0.721-0.102,1.078-0.157
	c0.36-0.056,0.69-0.252,1.044-0.326c0.356-0.073,0.733-0.038,1.083-0.129c0.353-0.092,0.729-0.101,1.074-0.21
	c0.347-0.11,0.661-0.317,1-0.444c0.341-0.128,0.629-0.374,0.961-0.518c0.333-0.145,0.662-0.284,0.986-0.445
	c0.325-0.162,0.71-0.206,1.025-0.384c0.316-0.178,0.645-0.339,0.951-0.533s0.538-0.501,0.833-0.71
	c0.297-0.21,0.655-0.336,0.939-0.559c0.285-0.224,0.491-0.545,0.764-0.783c0.273-0.238,0.562-0.457,0.822-0.709
	c0.261-0.251,0.452-0.567,0.7-0.831c0.247-0.265,0.571-0.5,0.806-0.777c-0.355-0.013-0.681-0.001-1.059-0.012
	c-0.359-0.011-0.5,0.077-0.875,0.067c-0.362-0.009-0.791-0.041-1.165-0.048c-0.361-0.008-0.94-0.013-1.311-0.019
	c-0.364-0.006-0.746,0.048-1.116,0.043c-0.367-0.005-0.723-0.035-1.092-0.039c-0.37-0.004-0.741,0.006-1.111,0.002
	c-0.37-0.003-0.876,0.112-1.242,0.11c-0.372-0.002-0.752-0.072-1.118-0.073c-0.372-0.001-0.727,0-1.09,0
	c-0.376,0-0.612-0.148-0.973-0.147c-0.379,0.001-0.749,0.104-1.107,0.106c-0.383,0.002-0.752-0.037-1.108-0.033
	c-0.385,0.004-0.755-0.105-1.103-0.099c-0.393,0.006-0.759,0.084-1.097,0.092c-0.332,0.009-0.721,0.011-1.129,0.036
	c-0.374,0.023-0.762,0.082-1.136,0.109c-0.41,0.029-0.799,0.097-1.133,0.119c-0.436,0.029-0.656-0.302-0.807-0.592
	c-0.159-0.304-0.161-0.621-0.003-0.941c0.146-0.295,0.349-0.529,0.768-0.557c0.332-0.022,0.712-0.078,1.106-0.042
	c0.363,0.033,0.722,0.246,1.085,0.288c0.394,0.045,0.79-0.138,1.121-0.132c0.345,0.007,0.712,0.008,1.1,0.015
	c0.351,0.006,0.718,0.095,1.1,0.102c0.357,0.006,0.727-0.093,1.106-0.086c0.36,0.006,0.726,0.15,1.102,0.156
	c0.361,0.006,0.726,0.071,1.098,0.077c0.364,0.006,0.731,0.042,1.104,0.048c0.366,0.007,0.736-0.061,1.108-0.054
	c0.367,0.006,0.737-0.039,1.107-0.031c0.37,0.006,0.739,0.138,1.109,0.146c0.372,0.007,0.749-0.203,1.118-0.195
	c0.374,0.009,0.747,0.098,1.116,0.107c0.374,0.009,0.743-0.015,1.109-0.005c0.374,0.01,0.744-0.027,1.108-0.016
	c0.377,0.01,0.753-0.088,1.114-0.077c0.378,0.013,0.938-0.091,1.296-0.077c0.381,0.014,0.733,0.025,1.085,0.04
	c0.215-0.298,0.141-0.319,0.341-0.629c0.199-0.309,0.43-0.594,0.613-0.913c0.183-0.318,0.477-0.578,0.644-0.907
	c0.166-0.327,0.221-0.709,0.37-1.046c0.149-0.336,0.37-0.643,0.502-0.987c0.132-0.343,0.241-0.696,0.354-1.047
	c0.113-0.349,0.193-0.71,0.288-1.066c0.095-0.354,0.119-0.725,0.195-1.086c0.076-0.359,0.214-0.706,0.271-1.072
	c0.058-0.361,0.095-0.728,0.134-1.096c0.037-0.364,0.015-0.734,0.033-1.104c0.019-0.365,0.04-0.267,0.04-0.638
	c0-0.185-0.277-0.367-0.33-0.127C42.184,21.929,42.198,21.939,42.092,22.186 M14.948,21.172c-0.127,0.357-0.222,0.767-0.334,1.211
	c-0.099,0.392-0.191,0.804-0.28,1.23c-0.087,0.41-0.205,0.809-0.285,1.223c-0.03,0.604,0.049,0.602,0.049,1.207
	c0,0.606-0.061,0.606-0.061,1.213c0,0.606-0.149,0.606-0.149,1.213c0,0.23-0.094,0.488-0.324,0.488c-0.555,0-0.555-0.138-1.11-0.138
	c-0.555,0-0.555,0.18-1.11,0.18c-0.23,0-0.31-0.301-0.31-0.531c-0.005-0.569-0.148-0.51-0.156-1.138
	c-0.005-0.368-0.088-0.774-0.093-1.142c-0.008-0.628,0.178-1.157,0.178-1.159c-0.064-0.355-0.086-0.69-0.152-0.989
	c-0.077-0.347-0.169-0.667-0.252-0.969c-0.089-0.327-0.173-0.644-0.274-0.955c-0.098-0.304-0.412-0.541-0.524-0.867
	c-0.113-0.334-0.093-0.744-0.201-1.119c-0.104-0.36-0.228-0.718-0.271-1.086c-0.044-0.383,0.043-0.735,0.127-1.093
	c0.083-0.354,0.226-0.637,0.497-0.934c0.289-0.317,0.578-0.525,0.958-0.648c0.379-0.123,0.767-0.251,1.177-0.269
	c0.41-0.018,0.85-0.083,1.264-0.016c0.415,0.067,0.819,0.249,1.185,0.448c0.328,0.178,0.588,0.416,0.745,0.691
	c0.163,0.285,0.075,0.646,0.101,0.993c0.023,0.323,0.013,0.637-0.042,0.977c-0.054,0.332,0.068,0.708-0.024,1.024
	C15.177,20.561,15.05,20.886,14.948,21.172"/>
</svg>
